<?xml version="1.0" standalone="no"?>
<!DOCTYPE svg PUBLIC "-//W3C//DTD SVG 20010904//EN"
 "http://www.w3.org/TR/2001/REC-SVG-20010904/DTD/svg10.dtd">
<svg version="1.0" xmlns="http://www.w3.org/2000/svg"
 width="2640.000000pt" height="2640.000000pt" viewBox="0 0 2640.000000 2640.000000"
 preserveAspectRatio="xMidYMid meet">
<metadata>
Created by potrace 1.14, written by Peter Selinger 2001-2017
</metadata>
<g transform="translate(0.000000,2640.000000) scale(0.100000,-0.100000)"
fill="#000000" stroke="none">
<path d="M0 13200 l0 -6600 2708 3 c2971 3 2749 -1 3192 63 1677 241 3200
1126 4256 2474 595 759 1028 1676 1239 2622 68 305 127 710 142 981 6 120 23
163 23 59 0 -86 27 -352 56 -552 166 -1158 643 -2256 1380 -3175 1090 -1360
2679 -2240 4399 -2434 314 -36 499 -44 865 -38 445 7 738 36 1137 113 1699
325 3199 1306 4195 2744 398 575 742 1309 902 1922 l42 163 932 3 932 2 0
1650 0 1650 -931 2 -932 3 -42 160 c-160 615 -487 1317 -883 1895 -257 375
-464 624 -801 961 -494 494 -994 861 -1601 1178 -780 407 -1555 637 -2460 728
-248 25 -971 25 -1210 0 -1007 -106 -1873 -383 -2707 -869 -1589 -923 -2729
-2480 -3128 -4270 -68 -305 -127 -710 -142 -980 -6 -121 -23 -164 -23 -60 0
86 -27 352 -56 552 -271 1886 -1358 3572 -2972 4609 -938 602 -1998 951 -3132
1031 -93 6 -1092 10 -2762 10 l-2618 0 0 -6600z m5740 3276 c642 -82 1202
-318 1695 -712 141 -113 376 -348 489 -489 587 -733 836 -1654 696 -2577 -159
-1050 -825 -1964 -1779 -2443 -359 -180 -707 -282 -1141 -336 -67 -8 -494 -13
-1452 -16 l-1358 -4 0 3301 0 3301 1358 -4 c1216 -3 1371 -5 1492 -21z m12740
3 c878 -84 1696 -531 2255 -1234 81 -102 145 -198 203 -302 l51 -93 -595 0
-594 0 0 -1650 0 -1650 594 -2 593 -3 -61 -110 c-170 -305 -508 -665 -861
-917 -713 -509 -1600 -713 -2470 -567 -1126 189 -2087 968 -2509 2034 -255
645 -300 1351 -131 2025 256 1019 1000 1866 1980 2254 491 194 1012 266 1545
215z"/>
</g>
</svg>
